<svg width="246" height="102" viewBox="0 0 246 102" fill="none" xmlns="http://www.w3.org/2000/svg">
<path d="M172.91 0.495926H185.068V11.5298H172.91V0.495926Z" fill="url(#paint0_linear)"/>
<path fill-rule="evenodd" clip-rule="evenodd" d="M229.938 18.5562V24.9915H234.453V34.4259C234.453 34.7591 234.279 35.0506 233.932 35.3006C233.642 35.5505 233.266 35.6754 232.803 35.6754H227.333C226.87 35.6754 226.465 35.5505 226.118 35.3006C225.828 35.0506 225.684 34.7591 225.684 34.4259V7.18507C225.684 6.85185 225.828 6.56028 226.118 6.31036C226.465 6.06045 226.87 5.93549 227.333 5.93549H232.803C233.266 5.93549 233.642 6.06045 233.932 6.31036C234.279 6.56028 234.453 6.85185 234.453 7.18507V12.0584H246V8.24721C246 2.74907 242.411 0 235.234 0H224.295C217.117 0 213.529 2.74907 213.529 8.24721V33.4262C213.529 38.9243 217.117 41.6734 224.295 41.6734H235.234C242.411 41.6734 246 38.9243 246 33.4262V18.5562H229.938ZM159.061 18.9311C162.823 19.8891 164.704 22.0967 164.704 25.5539V32.8014C164.704 38.2995 161.115 41.0486 153.938 41.0486H143.781V35.0506H150.899C151.362 35.0506 151.739 34.9257 152.028 34.6758C152.375 34.4259 152.549 34.1343 152.549 33.8011V24.7416C152.549 24.4084 152.375 24.1168 152.028 23.8669C151.739 23.617 151.362 23.4921 150.899 23.4921H143.78V28.9445H131.625L131.625 0.624788H153.243C160.421 0.624788 164.009 3.37386 164.009 8.872V12.5583C164.009 15.8905 162.36 18.0147 159.061 18.9311ZM150.205 6.56028H143.78V17.3691H150.205C150.668 17.3691 151.044 17.2442 151.333 16.9943C151.681 16.7443 151.854 16.4528 151.854 16.1195V7.80986C151.854 7.47664 151.681 7.18507 151.333 6.93515C151.044 6.68524 150.668 6.56028 150.205 6.56028ZM193.057 0.624788H205.212V33.4262C205.212 38.9243 201.623 41.6734 194.446 41.6734H183.68C176.503 41.6734 172.914 38.9243 172.914 33.4262V0.624788H185.069V34.1759C185.069 34.5092 185.214 34.8007 185.503 35.0506C185.85 35.3006 186.256 35.4255 186.719 35.4255H191.407C191.87 35.4255 192.246 35.3006 192.536 35.0506C192.883 34.8007 193.057 34.5092 193.057 34.1759V0.624788Z" fill="#FF9000"/>
<path opacity="0.7" d="M173.007 0.529816H185.165V11.5637H173.007V0.529816Z" fill="url(#paint1_linear)"/>
<path d="M22.1574 84.3397V101.301H9.14758V58.0959H22.1574V76.1928H32.4724V58.0959H45.4823V101.301H32.4724V84.3397H22.1574Z" fill="black"/>
<path d="M76.2609 58.0959H89.2708V93.1544C89.2708 99.0308 85.4297 101.969 77.7477 101.969H66.2247C58.5427 101.969 54.7017 99.0308 54.7017 93.1544V58.0959H67.7116V93.9557C67.7116 94.3119 67.8664 94.6235 68.1762 94.8906C68.5479 95.1577 68.9816 95.2913 69.4772 95.2913H74.4953C74.9909 95.2913 75.3936 95.1577 75.7033 94.8906C76.075 94.6235 76.2609 94.3119 76.2609 93.9557V58.0959Z" fill="black"/>
<path d="M132.649 101.301H119.639V65.4415C119.639 65.0854 119.453 64.7737 119.082 64.5066C118.772 64.2395 118.369 64.106 117.874 64.106H112.855C112.36 64.106 111.926 64.2395 111.555 64.5066C111.245 64.7737 111.09 65.0854 111.09 65.4415V101.301H98.08V66.2429C98.08 60.3664 101.921 57.4282 109.603 57.4282H121.126C128.808 57.4282 132.649 60.3664 132.649 66.2429V101.301Z" fill="black"/>
<path d="M137.931 66.0425V58.0959H170.456V66.0425H160.699V101.301H147.689V66.0425H137.931Z" fill="black"/>
<path d="M189.409 93.5551H203.813V101.301H176.399V58.0959H203.813V65.7086H189.409V75.8589H202.883V83.2045H189.409V93.5551Z" fill="black"/>
<path d="M224.348 83.6051V101.301H211.338V58.0959H234.477C242.159 58.0959 246 61.0342 246 66.9106V71.919C246 75.4805 244.234 77.7509 240.703 78.7303C243.8 79.5317 245.349 81.3569 245.349 84.2061V101.301H232.339V84.9407C232.339 84.0503 231.751 83.6051 230.574 83.6051H224.348ZM224.348 64.4399V77.0609H231.224C231.72 77.0609 232.122 76.9273 232.432 76.6602C232.804 76.3931 232.99 76.0815 232.99 75.7253V65.7754C232.99 65.4193 232.804 65.1076 232.432 64.8405C232.122 64.5734 231.72 64.4399 231.224 64.4399H224.348Z" fill="black"/>
<path d="M0 8.05974V0.624756H30.3875V8.05974H21.2713V41.0486H9.11626V8.05974H0Z" fill="black"/>
<path d="M48.095 25.179V41.0486H35.94V0.624756H48.095V17.5565H57.7322V0.624756H69.8872V41.0486H57.7322V25.179H48.095Z" fill="black"/>
<path d="M90.7427 33.801H104.2V41.0486H78.5877V0.624756H104.2V7.74734H90.7427V17.2441H103.332V24.1168H90.7427V33.801Z" fill="black"/>
<rect x="119.525" y="28.9445" width="12.1043" height="12.1043" fill="url(#paint2_linear)"/>
<path d="M234.452 24.9897H245.999V33.8622H234.452V24.9897Z" fill="url(#paint3_linear)"/>
<defs>
<linearGradient id="paint0_linear" x1="178.989" y1="0.495926" x2="187.451" y2="20.8632" gradientUnits="userSpaceOnUse">
<stop stop-color="#AE174D"/>
<stop offset="1" stop-color="#AE174D" stop-opacity="0"/>
</linearGradient>
<linearGradient id="paint1_linear" x1="179.086" y1="0.529816" x2="187.548" y2="20.8971" gradientUnits="userSpaceOnUse">
<stop stop-color="#AE174D"/>
<stop offset="1" stop-color="#AE174D" stop-opacity="0"/>
</linearGradient>
<linearGradient id="paint2_linear" x1="125.577" y1="28.9445" x2="114.398" y2="44.8914" gradientUnits="userSpaceOnUse">
<stop stop-color="#AE174D"/>
<stop offset="1" stop-color="#AE174D" stop-opacity="0"/>
</linearGradient>
<linearGradient id="paint3_linear" x1="234.452" y1="20.6884" x2="244.045" y2="48.1653" gradientUnits="userSpaceOnUse">
<stop stop-color="#AE174D"/>
<stop offset="1" stop-color="#AE174D" stop-opacity="0"/>
</linearGradient>
</defs>
</svg>
